<?xml version="1.0" encoding="UTF-8" standalone="no"?>
<!-- Created with Inkscape (http://www.inkscape.org/) -->

<svg
   width="58.754536mm"
   height="13.745815mm"
   viewBox="0 0 58.754536 13.745815"
   version="1.1"
   id="svg1"
   xml:space="preserve"
   sodipodi:docname="描画-1.svg"
   inkscape:version="1.3 (0e150ed6c4, 2023-07-21)"
   inkscape:export-filename="white.svg"
   inkscape:export-xdpi="300"
   inkscape:export-ydpi="300"
   xmlns:inkscape="http://www.inkscape.org/namespaces/inkscape"
   xmlns:sodipodi="http://sodipodi.sourceforge.net/DTD/sodipodi-0.dtd"
   xmlns="http://www.w3.org/2000/svg"
   xmlns:svg="http://www.w3.org/2000/svg"><sodipodi:namedview
     id="namedview1"
     pagecolor="#ffffff"
     bordercolor="#000000"
     borderopacity="0.25"
     inkscape:showpageshadow="2"
     inkscape:pageopacity="0.0"
     inkscape:pagecheckerboard="0"
     inkscape:deskcolor="#d1d1d1"
     inkscape:document-units="mm"
     inkscape:zoom="2.8284271"
     inkscape:cx="392.26749"
     inkscape:cy="677.58507"
     inkscape:window-width="1931"
     inkscape:window-height="1266"
     inkscape:window-x="5026"
     inkscape:window-y="678"
     inkscape:window-maximized="0"
     inkscape:current-layer="layer1" /><defs
     id="defs1" /><g
     inkscape:label="Layer 1"
     inkscape:groupmode="layer"
     id="layer1"
     transform="translate(-87.496472,-184.02444)"><path
       style="display:inline;fill:#000000;fill-opacity:1;stroke:none;stroke-width:0.10995px;stroke-linecap:butt;stroke-linejoin:miter;stroke-opacity:1"
       d="m 98.52006,194.74744 c -0.50143,-2.00469 -1.69363,-0.85198 -1.96156,-2.3551 -0.26794,-1.50311 0.44588,-2.06441 0.22168,-3.62999 -0.11493,-1.44635 -1.84883,-2.32918 -2.552,-2.58819 -1.2509,-0.46074 -0.75957,-0.60624 -0.74825,0.2392 0.0114,0.84542 1.31913,1.80661 1.30191,2.56962 -0.0215,0.95349 0.72496,1.48345 0.84526,2.36096 0.1203,0.87753 -3.17221,2.17268 -3.03925,3.16095 0.18815,1.39854 5.23449,-0.37856 5.92426,0.22978 z"
       id="path3652-3-7-0-5-9-8"
       inkscape:connector-curvature="0"
       sodipodi:nodetypes="cssssssscc" /><path
       id="text1-4-0-0-6"
       style="-inkscape-font-specification:'Sans, Bold';fill:#000000;fill-opacity:1;stroke:none;stroke-width:0.264583"
       d="m 130.73931,184.92689 v 2.01228 h 2.46652 v -2.01228 z m -43.242838,0.43408 v 10.28723 h 2.797245 c 1.543399,0 2.700957,-0.11024 3.472656,-0.33073 0.7717,-0.22508 1.433166,-0.60404 1.984375,-1.13688 0.48231,-0.46394 0.8406,-0.99925 1.07487,-1.60559 0.23427,-0.61093 0.3514,-1.3042 0.3514,-2.08049 0,-0.76711 -0.11713,-1.454 -0.3514,-2.06034 -0.23427,-0.60633 -0.59256,-1.14165 -1.07487,-1.60558 -0.546619,-0.53284 -1.203313,-0.90916 -1.970422,-1.12965 -0.762509,-0.22508 -1.924831,-0.33797 -3.486609,-0.33797 z m 2.753764,2.01042 c 0.08078,-3.4e-4 0.180357,-0.005 0.343721,-0.005 h 0.505912 c 1.088649,0 1.918114,0.26658 2.487704,0.79943 0.569589,0.53284 0.854211,1.30931 0.854211,2.32906 0,1.02434 -0.287256,1.80506 -0.861446,2.34249 -0.569589,0.53743 -1.39641,0.80616 -2.480469,0.80616 h -0.950846 v -0.0517 l -0.0026,0.0362 c -0.49225,-0.34441 -0.0677,-0.79633 -0.0677,-0.79633 0,0 -0.288514,-0.16579 -0.308508,-0.48162 -0.01807,-0.28453 0.311457,-0.49723 0.378788,-0.53796 v -0.0114 c -0.09323,0.0193 -0.424939,0.0671 -0.478524,-0.22479 -0.04662,-0.25421 0.173116,-0.57877 0.173116,-0.57877 l -0.0015,-0.20723 c 0,0 -0.686381,-0.0949 -0.556038,-0.64027 0.0918,-0.39117 0.375867,-0.657 0.630452,-1.24023 0.120972,-0.278 0.143902,-0.57226 0.125574,-0.84388 -0.169231,-0.004 -0.480048,-0.0646 -0.42478,-0.47284 0.1316,0.2839 0.296006,0.2839 0.401009,0.25115 -0.0015,-0.0405 0.102603,-0.40395 0.11007,-0.4377 0.0035,-0.01 0.0058,-0.0185 0.01344,-0.0253 0,0 0.02538,-0.009 0.108418,-0.009 z m 13.886044,0.37394 c -0.57419,0 -1.06815,0.11712 -1.48156,0.35139 -0.40882,0.22967 -0.77136,0.59698 -1.08831,1.10226 v -1.26762 h -2.467029 v 7.71684 h 2.467029 v -3.55534 c 0,-0.75792 0.16962,-1.33882 0.50953,-1.74304 0.34451,-0.40882 0.83371,-0.6134 1.46761,-0.6134 0.21589,0 0.42949,0.0255 0.64079,0.076 0.21589,0.0459 0.43213,0.11908 0.64802,0.22014 l -0.007,-2.23242 c -0.18374,-0.0229 -0.32363,-0.0363 -0.42013,-0.0413 -0.0965,-0.009 -0.18602,-0.0134 -0.26872,-0.0134 z m 20.36724,0 c -0.53284,0 -1.06552,0.0344 -1.59836,0.10335 -0.53284,0.0643 -1.06338,0.16077 -1.59163,0.28939 v 1.88102 c 0.39045,-0.2113 0.81287,-0.36978 1.26762,-0.47543 0.45475,-0.10567 0.9466,-0.15864 1.47485,-0.15864 0.65227,0 1.13193,0.0917 1.4397,0.27543 0.30776,0.17914 0.46199,0.46428 0.46199,0.85473 v 0.19275 h -1.45417 c -1.3321,0 -2.31052,0.21148 -2.93523,0.63407 -0.62011,0.4226 -0.93017,1.08619 -0.93017,1.9911 0,0.74414 0.24805,1.35048 0.74414,1.81901 0.50069,0.46394 1.15101,0.69608 1.95027,0.69608 0.59255,0 1.09554,-0.10599 1.50895,-0.31729 0.41341,-0.21589 0.78548,-0.55777 1.11621,-1.0263 v 1.1436 h 2.48719 v -4.40283 c 0,-1.23564 -0.31006,-2.1266 -0.93018,-2.67322 -0.61552,-0.55122 -1.61937,-0.82682 -3.01118,-0.82682 z m 16.10961,0 c -0.57418,0 -1.06816,0.11712 -1.48157,0.35139 -0.40882,0.22967 -0.77187,0.59698 -1.08882,1.10226 v -1.26762 h -2.46652 v 7.71684 h 2.46652 v -3.55534 c 0,-0.75792 0.17014,-1.33882 0.51005,-1.74304 0.34451,-0.40882 0.83372,-0.6134 1.46761,-0.6134 0.21589,0 0.42949,0.0255 0.64079,0.076 0.21589,0.0459 0.43161,0.11908 0.6475,0.22014 l -0.007,-2.23242 c -0.18374,-0.0229 -0.32363,-0.0363 -0.42013,-0.0413 -0.0965,-0.009 -0.18601,-0.0134 -0.26871,-0.0134 z m -9.87382,0.18603 v 7.71684 h 2.46652 v -7.71684 z m -6.0632,4.24419 h 1.28158 v 0.28267 c 0,0.50069 -0.15847,0.91834 -0.47542,1.25367 -0.31695,0.33073 -0.70757,0.49609 -1.17151,0.49609 -0.37207,0 -0.66358,-0.0869 -0.87488,-0.26148 -0.20671,-0.17915 -0.31006,-0.42508 -0.31006,-0.73743 0,-0.33991 0.12828,-0.59698 0.38551,-0.77152 0.26183,-0.17453 0.65032,-0.262 1.16478,-0.262 z m -20.37446,0.80615 v 2.6665 h 2.48047 v -2.6665 z"
       sodipodi:nodetypes="cccccccscccssccscscscscscccccccccccccccccsccccccscsccccssccccscscscscsccccscssccccccscsccccscccscscscscscscccccccc" /><path
       style="fill:#000000;fill-opacity:1;stroke:none;stroke-width:0.0757426px;stroke-linecap:butt;stroke-linejoin:miter;stroke-opacity:1"
       d="m 145.93856,187.81551 c -0.14752,0.006 -0.73615,0.85678 -1.83855,0.78637 -1.10239,-0.0704 -1.55647,-0.67884 -2.69673,-0.78717 -1.28961,-0.12251 -1.54234,0.49745 -2.04619,0.66722 -1.17365,0.39546 0.21867,-0.51694 -0.55772,0.11663 -0.44762,0.36527 -0.77013,1.01754 -0.10463,0.82494 1.85776,-0.53764 0.48062,0.16955 2.62959,0.60731 1.35611,0.27626 0.76161,0.11576 2.20621,0.10015 1.04165,-0.0113 1.88478,-1.97859 2.41505,-2.32088 z"
       id="path3652-3-7-5-6-7-5"
       inkscape:connector-curvature="0"
       sodipodi:nodetypes="cssssssscc" /><path
       style="fill:#000000;fill-opacity:1;stroke:none;stroke-width:0.259317;stroke-dasharray:none;stroke-opacity:1"
       d="m 91.68953,187.07949 c 0,0 0.34616,0.54344 0.58466,1.46285 0.33951,1.30886 0.43283,2.3745 -0.15203,3.72229 -0.55168,1.27135 -0.65423,1.11593 -0.9209,1.5547 0,0 0.46067,-0.003 1.14992,-1.14024 0.69932,-1.15429 0.82367,-1.68384 0.88207,-2.10978 0.0572,-0.41739 0.0528,-0.87056 3e-5,-1.30283 -0.0286,-0.23423 -0.18144,-0.82261 -0.24501,-1.0385 -0.0554,-0.18811 -0.2286,-0.6168 -0.3046,-0.72376 -0.0758,-0.10668 -0.36013,-0.30153 -0.85359,-0.49643 -0.80682,-0.31864 -0.14055,0.0717 -0.14055,0.0717 z"
       id="path4-5-2"
       sodipodi:nodetypes="csscsssssscc" /><g
       id="g8-1-9"
       transform="translate(8.343972,70.725748)"
       style="fill:#000000;fill-opacity:1;stroke:none"><path
         style="font-style:italic;font-weight:bold;font-size:14.1111px;font-family:Sans;-inkscape-font-specification:'Sans, Bold Italic';fill:#000000;fill-opacity:1;stroke:none;stroke-width:0.233"
         d="m 103.1889,114.8285 h 2.65272 l -0.76481,3.92051 h 3.91363 l 0.75792,-3.92051 -2.00505,10.28704 0.84749,-4.36148 h -3.90673 l -0.84749,4.36148 h -2.65273 z"
         id="text5-6-4"
         aria-label="H"
         sodipodi:nodetypes="ccccccccccc" /><path
         style="fill:#000000;fill-opacity:1;stroke:none;stroke-width:0.256717"
         d="m 109.68627,126.83853 c 0.78503,-0.40222 1.27373,-1.30205 1.27373,-2.34527 v -0.27904 l 0.55817,0.0152 -0.0234,-0.50966 h -0.97756 l -0.0254,0.75929 c -0.0226,0.67927 -0.0456,0.79914 -0.21732,1.13755 -0.33606,0.662 -0.76551,0.9284 -1.49664,0.9284 -0.38833,0 -0.76085,-0.15453 -0.96713,-0.40119 -0.0614,-0.0735 -0.17814,-0.29147 -0.2592,-0.48428 -0.12446,-0.29603 -0.14772,-0.4742 -0.14948,-1.14517 l -0.002,-0.7946 h -1.18725 l -0.0266,0.49443 h 0.7717 l 0.0319,0.68863 c 0.0238,0.51515 0.0689,0.77295 0.17883,1.02324 0.43534,0.99132 1.5647,1.40062 2.5175,0.91244 z m -0.32389,-0.84609 c 0.32514,-0.16458 0.59356,-0.4991 0.6785,-0.84555 0.0353,-0.14392 0.0945,-0.89911 0.13168,-1.67819 0.1464,-3.06959 0.66257,-5.87767 1.6128,-8.77388 0.2004,-0.6108 0.3796,-1.19001 0.39822,-1.28713 0.0314,-0.16315 0.013,-0.1551 -0.24135,0.10595 -0.69699,0.71551 -1.7967,2.58853 -2.47406,3.98814 -1.13968,2.35491 -1.65279,4.39414 -1.66842,6.67711 -0.009,1.25866 0.11778,1.31244 0.50887,1.61364 0.284,0.21867 0.70519,0.37634 1.05376,0.19992 z"
         id="path7-3-3"
         sodipodi:nodetypes="cscccccsssscccccssccsssssssssss" /></g></g></svg>
